<mxfile host="app.diagrams.net" modified="2023-02-16T15:56:06.523Z" agent="5.0 (Windows NT 10.0; Win64; x64) AppleWebKit/537.36 (KHTML, like Gecko) Chrome/110.0.0.0 Safari/537.36" etag="Z_iQS1eVeckm3IVSy__W" version="20.8.20" type="github">
  <diagram id="C5RBs43oDa-KdzZeNtuy" name="Page-1">
    <mxGraphModel dx="1434" dy="796" grid="1" gridSize="10" guides="1" tooltips="1" connect="1" arrows="1" fold="1" page="1" pageScale="1" pageWidth="827" pageHeight="1169" math="0" shadow="0">
      <root>
        <mxCell id="WIyWlLk6GJQsqaUBKTNV-0" />
        <mxCell id="WIyWlLk6GJQsqaUBKTNV-1" parent="WIyWlLk6GJQsqaUBKTNV-0" />
        <mxCell id="Wgxde0-L1tqEdiPSBwwV-5" style="edgeStyle=orthogonalEdgeStyle;rounded=0;orthogonalLoop=1;jettySize=auto;html=1;fontSize=25;" edge="1" parent="WIyWlLk6GJQsqaUBKTNV-1" source="Wgxde0-L1tqEdiPSBwwV-1" target="Wgxde0-L1tqEdiPSBwwV-3">
          <mxGeometry relative="1" as="geometry" />
        </mxCell>
        <mxCell id="Wgxde0-L1tqEdiPSBwwV-1" value="&lt;font style=&quot;font-size: 25px;&quot;&gt;Start&lt;/font&gt;" style="ellipse;whiteSpace=wrap;html=1;" vertex="1" parent="WIyWlLk6GJQsqaUBKTNV-1">
          <mxGeometry x="340" y="50" width="120" height="80" as="geometry" />
        </mxCell>
        <mxCell id="Wgxde0-L1tqEdiPSBwwV-2" value="Stop" style="ellipse;whiteSpace=wrap;html=1;fontSize=25;" vertex="1" parent="WIyWlLk6GJQsqaUBKTNV-1">
          <mxGeometry x="340" y="450" width="120" height="80" as="geometry" />
        </mxCell>
        <mxCell id="Wgxde0-L1tqEdiPSBwwV-7" style="edgeStyle=orthogonalEdgeStyle;rounded=0;orthogonalLoop=1;jettySize=auto;html=1;entryX=0.5;entryY=0;entryDx=0;entryDy=0;fontSize=25;" edge="1" parent="WIyWlLk6GJQsqaUBKTNV-1" source="Wgxde0-L1tqEdiPSBwwV-3" target="Wgxde0-L1tqEdiPSBwwV-6">
          <mxGeometry relative="1" as="geometry" />
        </mxCell>
        <mxCell id="Wgxde0-L1tqEdiPSBwwV-3" value="Pobierz wartość a wstaw b = 2" style="rounded=0;whiteSpace=wrap;html=1;fontSize=25;" vertex="1" parent="WIyWlLk6GJQsqaUBKTNV-1">
          <mxGeometry x="215" y="170" width="370" height="60" as="geometry" />
        </mxCell>
        <mxCell id="Wgxde0-L1tqEdiPSBwwV-8" style="edgeStyle=orthogonalEdgeStyle;rounded=0;orthogonalLoop=1;jettySize=auto;html=1;entryX=0.5;entryY=0;entryDx=0;entryDy=0;fontSize=25;" edge="1" parent="WIyWlLk6GJQsqaUBKTNV-1" source="Wgxde0-L1tqEdiPSBwwV-6" target="Wgxde0-L1tqEdiPSBwwV-2">
          <mxGeometry relative="1" as="geometry" />
        </mxCell>
        <mxCell id="Wgxde0-L1tqEdiPSBwwV-6" value="pokaż a + b" style="rounded=0;whiteSpace=wrap;html=1;fontSize=25;" vertex="1" parent="WIyWlLk6GJQsqaUBKTNV-1">
          <mxGeometry x="350" y="360" width="120" height="60" as="geometry" />
        </mxCell>
      </root>
    </mxGraphModel>
  </diagram>
</mxfile>
